<svg id="visual" viewBox="0 0 900 600" width="900" height="600" xmlns="http://www.w3.org/2000/svg" xmlns:xlink="http://www.w3.org/1999/xlink" version="1.1"><rect width="900" height="600" fill="#ffffff"></rect><g><g transform="translate(781 531)"><path d="M75.9 -27.1C84.8 2.5 68.9 37.8 40.9 58.6C13 79.4 -27 85.9 -51.4 68.7C-75.7 51.5 -84.3 10.7 -73.1 -22.2C-61.9 -55 -31 -79.9 1.3 -80.3C33.5 -80.8 67.1 -56.7 75.9 -27.1Z" fill="#e798bf"></path></g><g transform="translate(186 439)"><path d="M70.9 -20.8C80.7 6.9 69.5 43.7 45.7 60.3C22 77 -14.5 73.6 -38.1 55.7C-61.6 37.8 -72.3 5.4 -63.8 -20.6C-55.3 -46.6 -27.6 -66.2 1.5 -66.7C30.6 -67.2 61.2 -48.5 70.9 -20.8Z" fill="#e798bf"></path></g><g transform="translate(834 182)"><path d="M60.1 -17.1C68.7 6.8 60 38.7 38.6 54.7C17.1 70.7 -17.2 70.7 -37.1 55.3C-57 39.8 -62.5 8.8 -54 -15C-45.4 -38.9 -22.7 -55.7 1.5 -56.2C25.8 -56.7 51.6 -40.9 60.1 -17.1Z" fill="#e798bf"></path></g><g transform="translate(584 176)"><path d="M51.2 -17.3C58.1 4.6 49.7 30.8 32.3 43.1C15 55.4 -11.5 53.8 -29.7 40.6C-47.9 27.4 -57.9 2.7 -51.6 -18.5C-45.3 -39.6 -22.7 -57.1 -0.3 -57C22.1 -57 44.3 -39.3 51.2 -17.3Z" fill="#e798bf"></path></g><g transform="translate(426 502)"><path d="M40.6 -13.1C46.4 4.5 40.4 26 27.1 35.1C13.8 44.2 -6.8 40.9 -19.8 30.7C-32.9 20.4 -38.5 3 -33.9 -12.9C-29.3 -28.9 -14.7 -43.4 1.4 -43.9C17.4 -44.3 34.9 -30.7 40.6 -13.1Z" fill="#e798bf"></path></g><g transform="translate(152 67)"><path d="M63.8 -18.8C71.9 4 60 35.1 38.4 50.2C16.8 65.2 -14.5 64.1 -34 49.3C-53.5 34.6 -61.1 6.1 -53.5 -16.1C-45.9 -38.3 -22.9 -54.3 2.5 -55.1C27.9 -55.9 55.8 -41.5 63.8 -18.8Z" fill="#e798bf"></path></g><g transform="translate(350 231)"><path d="M59 -18.8C65.8 1.8 53.3 29 33.3 42.8C13.3 56.6 -14.2 57 -31.4 44.3C-48.5 31.5 -55.4 5.7 -48.4 -15.1C-41.5 -35.9 -20.7 -51.5 2.7 -52.4C26.1 -53.2 52.2 -39.3 59 -18.8Z" fill="#e798bf"></path></g></g></svg>