<svg id="visual" viewBox="0 0 900 600" width="900" height="600" xmlns="http://www.w3.org/2000/svg" xmlns:xlink="http://www.w3.org/1999/xlink" version="1.1"><rect x="0" y="0" width="900" height="600" fill="#52d0ec"></rect><defs><linearGradient id="grad1_0" x1="33.3%" y1="0%" x2="100%" y2="100%"><stop offset="20%" stop-color="#52d0ec" stop-opacity="1"></stop><stop offset="80%" stop-color="#52d0ec" stop-opacity="1"></stop></linearGradient></defs><defs><linearGradient id="grad2_0" x1="0%" y1="0%" x2="66.7%" y2="100%"><stop offset="20%" stop-color="#52d0ec" stop-opacity="1"></stop><stop offset="80%" stop-color="#52d0ec" stop-opacity="1"></stop></linearGradient></defs><g transform="translate(900, 0)"><path d="M0 270.4C-18.8 214.4 -37.6 158.4 -82.5 142.9C-127.4 127.4 -198.5 152.3 -234.2 135.2C-269.9 118.1 -270.1 59.1 -270.4 0L0 0Z" fill="#ff70b8"></path></g><g transform="translate(0, 600)"><path d="M0 -270.4C57.9 -269.5 115.8 -268.5 135.2 -234.2C154.6 -199.8 135.4 -132.1 151.6 -87.5C167.7 -42.9 219 -21.5 270.4 0L0 0Z" fill="#ff70b8"></path></g></svg>